<svg width="129" height="30" viewBox="0 0 129 30" fill="none" xmlns="http://www.w3.org/2000/svg">
<path d="M4.212 6.451C4.662 6.271 5.193 6.118 5.805 5.992C6.417 5.848 7.254 5.776 8.316 5.776C9.396 5.776 10.458 5.938 11.502 6.262L11.097 8.017C10.197 7.801 9.306 7.693 8.424 7.693C7.56 7.693 6.912 7.729 6.48 7.801C6.048 7.873 5.697 7.999 5.427 8.179C5.175 8.359 4.968 8.53 4.806 8.692C4.662 8.854 4.554 9.106 4.482 9.448C4.41 9.88 4.374 10.501 4.374 11.311V19.789C4.374 21.229 4.518 22.102 4.806 22.408C5.274 22.894 5.778 23.182 6.318 23.272C6.858 23.362 7.551 23.407 8.397 23.407C9.243 23.407 10.224 23.263 11.34 22.975L11.853 24.568C10.647 25.072 9.36 25.324 7.992 25.324C6.696 25.324 5.796 25.234 5.292 25.054C4.788 24.874 4.392 24.721 4.104 24.595C3.816 24.469 3.555 24.253 3.321 23.947C3.105 23.641 2.925 23.38 2.781 23.164C2.637 22.948 2.511 22.597 2.403 22.111C2.313 21.625 2.241 21.22 2.187 20.896C2.133 20.554 2.097 20.032 2.079 19.33C2.043 17.962 2.025 16.675 2.025 15.469C2.025 14.263 2.034 13.354 2.052 12.742C2.07 12.13 2.106 11.392 2.16 10.528C2.232 9.664 2.349 9.052 2.511 8.692C2.673 8.314 2.889 7.891 3.159 7.423C3.429 6.937 3.78 6.613 4.212 6.451ZM18.4009 8.53V10.96H20.8849V12.553H18.4009V21.625C18.4009 22.399 18.4819 22.948 18.6439 23.272C18.8059 23.596 19.1119 23.758 19.5619 23.758C20.0119 23.758 20.4169 23.722 20.7769 23.65L20.9659 25C20.3179 25.216 19.6969 25.324 19.1029 25.324C18.5269 25.324 18.0499 25.261 17.6719 25.135C17.3119 25.009 17.0329 24.856 16.8349 24.676C16.6369 24.496 16.4839 24.226 16.3759 23.866C16.2499 23.38 16.1869 22.633 16.1869 21.625V12.553H14.2699V11.365L16.1869 10.96L17.4019 8.53H18.4009ZM26.687 25H24.473V10.96H25.688L26.12 12.607C27.434 11.329 29 10.681 30.818 10.663L30.602 12.607C28.964 12.607 27.659 13.093 26.687 14.065V25ZM35.4145 25H33.2005V5.56H35.4145V25ZM77.5809 24.298C77.0589 24.586 76.3299 24.829 75.3939 25.027C74.4579 25.225 73.6479 25.324 72.9639 25.324C72.2799 25.324 71.6949 25.297 71.2089 25.243C70.7409 25.207 70.3179 25.126 69.9399 25C69.5619 24.856 69.2289 24.721 68.9409 24.595C68.6529 24.469 68.3919 24.253 68.1579 23.947C67.9419 23.641 67.7619 23.38 67.6179 23.164C67.4739 22.948 67.3479 22.597 67.2399 22.111C67.1499 21.625 67.0779 21.22 67.0239 20.896C66.9699 20.554 66.9339 20.032 66.9159 19.33C66.8799 17.962 66.8619 16.675 66.8619 15.469C66.8619 14.263 66.8709 13.354 66.8889 12.742C66.9069 12.13 66.9429 11.392 66.9969 10.528C67.0689 9.664 67.1859 9.052 67.3479 8.692C67.5099 8.314 67.7259 7.891 67.9959 7.423C68.2659 6.937 68.6169 6.604 69.0489 6.424C70.2009 5.992 71.4609 5.776 72.8289 5.776C74.2149 5.776 75.5649 5.974 76.8789 6.37L76.4739 8.125C75.2679 7.837 74.1879 7.693 73.2339 7.693C72.2799 7.693 71.5599 7.756 71.0739 7.882C70.6059 8.008 70.2459 8.152 69.9939 8.314C69.7419 8.476 69.5529 8.737 69.4269 9.097C69.3189 9.457 69.2559 9.772 69.2379 10.042C69.2199 10.294 69.2109 10.69 69.2109 11.23V19.789C69.2109 21.229 69.3549 22.102 69.6429 22.408C70.1109 22.894 70.6149 23.182 71.1549 23.272C71.6949 23.362 72.3429 23.407 73.0989 23.407C73.8549 23.407 74.6289 23.326 75.4209 23.164V17.035H72.8559V15.415H77.5809V24.298ZM84.3784 25H82.1644V10.96H83.3794L83.8114 12.607C85.1254 11.329 86.6914 10.681 88.5094 10.663L88.2934 12.607C86.6554 12.607 85.3504 13.093 84.3784 14.065V25ZM92.7279 14.794V17.575C94.5639 17.575 95.6529 17.512 95.9949 17.386C96.3549 17.242 96.6699 17.098 96.9399 16.954C97.4259 16.702 97.6689 16.207 97.6689 15.469V14.848C97.6689 13.966 97.5339 13.345 97.2639 12.985C96.9939 12.625 96.3459 12.445 95.3199 12.445C94.3119 12.445 93.6279 12.652 93.2679 13.066C92.9079 13.462 92.7279 14.038 92.7279 14.794ZM92.9709 11.014C93.2769 10.87 93.6279 10.78 94.0239 10.744C94.4199 10.69 94.9779 10.663 95.6979 10.663C96.4359 10.663 97.1199 10.762 97.7499 10.96C98.3799 11.158 98.8389 11.473 99.1269 11.905C99.4329 12.319 99.6309 12.751 99.7209 13.201C99.8289 13.633 99.8829 14.137 99.8829 14.713C99.8829 15.271 99.8469 15.739 99.7749 16.117C99.7029 16.477 99.6129 16.792 99.5049 17.062C99.4149 17.332 99.2529 17.575 99.0189 17.791C98.8029 17.989 98.5959 18.16 98.3979 18.304C98.2179 18.448 97.9389 18.574 97.5609 18.682C97.2009 18.772 96.8859 18.844 96.6159 18.898C96.3459 18.952 95.9589 18.997 95.4549 19.033C94.6989 19.087 93.7899 19.114 92.7279 19.114V21.139C92.7279 22.075 92.9259 22.714 93.3219 23.056C93.7179 23.38 94.3209 23.542 95.1309 23.542C96.6249 23.542 97.9659 23.29 99.1539 22.786L99.5859 24.136C98.2359 24.928 96.7419 25.324 95.1039 25.324C94.2399 25.324 93.5379 25.225 92.9979 25.027C92.4759 24.847 92.0979 24.64 91.8639 24.406C91.6479 24.172 91.4589 23.956 91.2969 23.758C91.1349 23.56 90.9999 23.272 90.8919 22.894C90.8019 22.516 90.7299 22.192 90.6759 21.922C90.6219 21.634 90.5859 21.238 90.5679 20.734C90.5139 19.87 90.4869 19.06 90.4869 18.304V16.684C90.4869 15.73 90.5229 15.046 90.5949 14.632C90.6669 14.218 90.7389 13.831 90.8109 13.471C90.8829 13.093 90.9819 12.814 91.1079 12.634C91.2339 12.436 91.3779 12.211 91.5399 11.959C91.7199 11.707 91.9269 11.518 92.1609 11.392C92.4129 11.266 92.6829 11.14 92.9709 11.014ZM105.621 14.794V17.575C107.457 17.575 108.546 17.512 108.888 17.386C109.248 17.242 109.563 17.098 109.833 16.954C110.319 16.702 110.562 16.207 110.562 15.469V14.848C110.562 13.966 110.427 13.345 110.157 12.985C109.887 12.625 109.239 12.445 108.213 12.445C107.205 12.445 106.521 12.652 106.161 13.066C105.801 13.462 105.621 14.038 105.621 14.794ZM105.864 11.014C106.17 10.87 106.521 10.78 106.917 10.744C107.313 10.69 107.871 10.663 108.591 10.663C109.329 10.663 110.013 10.762 110.643 10.96C111.273 11.158 111.732 11.473 112.02 11.905C112.326 12.319 112.524 12.751 112.614 13.201C112.722 13.633 112.776 14.137 112.776 14.713C112.776 15.271 112.74 15.739 112.668 16.117C112.596 16.477 112.506 16.792 112.398 17.062C112.308 17.332 112.146 17.575 111.912 17.791C111.696 17.989 111.489 18.16 111.291 18.304C111.111 18.448 110.832 18.574 110.454 18.682C110.094 18.772 109.779 18.844 109.509 18.898C109.239 18.952 108.852 18.997 108.348 19.033C107.592 19.087 106.683 19.114 105.621 19.114V21.139C105.621 22.075 105.819 22.714 106.215 23.056C106.611 23.38 107.214 23.542 108.024 23.542C109.518 23.542 110.859 23.29 112.047 22.786L112.479 24.136C111.129 24.928 109.635 25.324 107.997 25.324C107.133 25.324 106.431 25.225 105.891 25.027C105.369 24.847 104.991 24.64 104.757 24.406C104.541 24.172 104.352 23.956 104.19 23.758C104.028 23.56 103.893 23.272 103.785 22.894C103.695 22.516 103.623 22.192 103.569 21.922C103.515 21.634 103.479 21.238 103.461 20.734C103.407 19.87 103.38 19.06 103.38 18.304V16.684C103.38 15.73 103.416 15.046 103.488 14.632C103.56 14.218 103.632 13.831 103.704 13.471C103.776 13.093 103.875 12.814 104.001 12.634C104.127 12.436 104.271 12.211 104.433 11.959C104.613 11.707 104.82 11.518 105.054 11.392C105.306 11.266 105.576 11.14 105.864 11.014ZM126.048 15.118V25H123.834V14.821C123.834 13.939 123.699 13.318 123.429 12.958C123.159 12.598 122.511 12.418 121.485 12.418C120.477 12.418 119.793 12.625 119.433 13.039C119.073 13.435 118.893 14.011 118.893 14.767V25H116.679V10.96H117.894L118.245 12.283C118.587 11.797 119.037 11.428 119.595 11.176C120.153 10.906 120.612 10.753 120.972 10.717C121.35 10.681 121.872 10.663 122.538 10.663C123.222 10.663 123.816 10.78 124.32 11.014C124.824 11.248 125.193 11.59 125.427 12.04C125.841 12.814 126.048 13.84 126.048 15.118Z" fill="white"/>
<path d="M50.6671 26.6715V11.4946C50.6671 11.0568 51.0401 10.7021 51.5003 10.7021C51.9608 10.7021 52.3338 11.0568 52.3338 11.4946V26.6715C52.3338 27.1093 50.6671 27.1093 50.6671 26.6715Z" fill="white"/>
<path d="M51.5003 16.1438C48.7732 16.1438 46.5548 14.0346 46.5548 11.4419C46.5548 9.40684 48.3633 3 51.5003 3C54.637 3 56.4458 9.40684 56.4458 11.4419C56.4458 14.0346 54.2274 16.1438 51.5003 16.1438ZM51.5003 4.58494C50.0584 4.58494 48.2212 9.23274 48.2212 11.4419C48.2212 13.1609 49.6922 14.5589 51.5003 14.5589C53.3084 14.5589 54.7787 13.1609 54.7787 11.4419C54.7787 9.23274 52.9422 4.58494 51.5003 4.58494Z" fill="white"/>
<path d="M44.7094 22.2515C43.9356 22.2515 43.1553 22.0278 42.4832 21.5622C41.6908 21.0135 40.6429 19.8354 39.9349 18.6986C38.9254 17.0763 38.729 15.7789 39.3672 14.9458C40.8074 13.0682 45.6145 14.8169 46.9458 15.739C47.7637 16.3051 48.3009 17.1408 48.4579 18.0919C48.6149 19.0423 48.3731 19.9947 47.777 20.7724C47.036 21.7383 45.8804 22.2515 44.7094 22.2515ZM41.4954 15.6745C41.1068 15.6745 40.8227 15.7377 40.7141 15.8789C40.7141 15.8795 40.7141 15.8795 40.7141 15.8795C40.5866 16.0452 40.6518 16.7391 41.3693 17.8913C42.0363 18.963 42.9468 19.9231 43.4646 20.2817C44.4107 20.9361 45.741 20.7382 46.43 19.8387C46.7641 19.4034 46.8994 18.8702 46.8115 18.3376C46.7234 17.8049 46.4226 17.3368 45.9645 17.0196C44.8909 16.2761 42.6959 15.6745 41.4954 15.6745Z" fill="white"/>
<path d="M51.4996 24.0285C51.3321 24.0285 51.1629 23.9801 51.0161 23.8808L42.705 18.2387C42.3303 17.9847 42.2435 17.4894 42.5111 17.1335C42.7789 16.7776 43.2988 16.6963 43.6735 16.9491L51.9845 22.5912C52.3589 22.8452 52.4457 23.3404 52.1785 23.6964C52.0157 23.913 51.7594 24.0285 51.4996 24.0285Z" fill="white"/>
<path d="M58.2905 22.2515C57.1199 22.2515 55.9642 21.7389 55.2229 20.7723C54.6268 19.9947 54.3854 19.0423 54.542 18.0918C54.6994 17.1407 55.2365 16.3051 56.0544 15.7389C57.3857 14.8168 62.1942 13.0688 63.6327 14.9458C64.2709 15.7783 64.0749 17.0763 63.065 18.6986C62.357 19.8354 61.3091 21.0135 60.517 21.5622C59.8449 22.0278 59.0643 22.2515 58.2905 22.2515ZM61.5045 15.6744C60.3047 15.6744 58.1094 16.2761 57.0351 17.0195C56.5773 17.3368 56.2769 17.8049 56.1887 18.3375C56.1005 18.8701 56.2362 19.4034 56.5698 19.8386C57.2589 20.7388 58.5909 20.9361 59.535 20.2816C60.0531 19.9231 60.9639 18.963 61.6306 17.8913C62.3481 16.739 62.4132 16.0459 62.2858 15.8795C62.2858 15.8795 62.2858 15.8795 62.2858 15.8788C62.1772 15.7376 61.8931 15.6744 61.5045 15.6744Z" fill="white"/>
<path d="M51.4169 24.0852C51.1568 24.0852 50.9008 23.9698 50.738 23.7531C50.4704 23.3972 50.5576 22.902 50.932 22.6479L59.3268 16.9491C59.6998 16.6957 60.2213 16.7769 60.4892 17.1335C60.7564 17.4894 60.6696 17.9846 60.2952 18.2387L51.9004 23.9375C51.7539 24.0368 51.5844 24.0852 51.4169 24.0852Z" fill="white"/>
</svg>
